<svg width="1713" height="481" viewBox="0 0 1713 481" fill="none" xmlns="http://www.w3.org/2000/svg">
<path d="M1713 461.179L1655.9 425.707C1598.8 389.568 1484.6 319.622 1370.4 301.303C1256.2 282.984 1142 319.622 1027.8 354.595C913.6 389.568 799.4 426.206 685.2 452.353C571 479.498 456.8 496.152 342.6 461.179C228.4 426.206 114.2 336.276 57.1 292.477L4.57764e-05 248.011V34.8428H57.1C114.2 34.8428 228.4 34.8428 342.6 34.8428C456.8 34.8428 571 34.8428 685.2 34.8428C799.4 34.8428 913.6 34.8428 1027.8 34.8428C1142 34.8428 1256.2 34.8428 1370.4 34.8428C1484.6 34.8428 1598.8 34.8428 1655.9 34.8428H1713V461.179Z" fill="#101828"/>
<path d="M1713 426.337L1655.9 390.864C1598.8 354.725 1484.6 284.779 1370.4 266.46C1256.2 248.141 1142 284.779 1027.8 319.752C913.6 354.725 799.4 391.364 685.2 417.51C571 444.656 456.8 461.309 342.6 426.337C228.4 391.364 114.2 301.433 57.1 257.634L4.57764e-05 213.168V1.37513e-05H57.1C114.2 1.37513e-05 228.4 1.37513e-05 342.6 1.37513e-05C456.8 1.37513e-05 571 1.37513e-05 685.2 1.37513e-05C799.4 1.37513e-05 913.6 1.37513e-05 1027.8 1.37513e-05C1142 1.37513e-05 1256.2 1.37513e-05 1370.4 1.37513e-05C1484.6 1.37513e-05 1598.8 1.37513e-05 1655.9 1.37513e-05H1713V426.337Z" fill="url(#paint0_linear_33_888)"/>
<defs>
<linearGradient id="paint0_linear_33_888" x1="856.5" y1="446.157" x2="856.5" y2="0" gradientUnits="userSpaceOnUse">
<stop stop-color="#1D2939"/>
<stop offset="1" stop-color="#585F6C"/>
</linearGradient>
</defs>
</svg>
