<svg width="20" height="20" viewBox="0 0 20 20" fill="none" xmlns="http://www.w3.org/2000/svg">
<g clip-path="url(#clip0_4_33)">
<path d="M7.91914 11.8594L7.91916 11.8593L7.92163 11.8612L8.35448 12.2H12C12.8352 12.2 13.5 12.8648 13.5 13.7C13.5 13.8653 13.4786 14.0232 13.4265 14.1721C13.531 14.1488 13.6249 14.1136 13.7019 14.0586L13.7016 14.0582L13.7102 14.0533L16.5253 12.4361C17.0158 12.0763 17.6532 12.0354 18.1833 12.2898L18.1833 12.2898L18.186 12.2912C18.7579 12.5877 19.1 13.1412 19.1 13.76C19.1 14.2711 18.8659 14.717 18.4875 15.0339L18.4707 15.0507L18.4638 15.0576L18.4558 15.063L13.0958 18.663L13.0958 18.663L13.0943 18.664C12.7394 18.8936 12.3407 19.02 11.92 19.02H7.24C6.86065 19.02 6.50393 18.9144 6.17097 18.7272L6.17096 18.7272L6.16886 18.7259L3.9 17.3759V17.7C3.9 17.9752 3.67523 18.2 3.4 18.2H1.4C1.12477 18.2 0.899998 17.9752 0.899998 17.7V11.3C0.899998 11.0248 1.12477 10.8 1.4 10.8H4.82C5.9034 10.8 7.00378 11.1881 7.91914 11.8594ZM17.1033 13.2774L17.1 13.2801V13.2981L17.0495 13.3269L14.2105 14.9463C13.8927 15.1367 13.5346 15.22 13.16 15.22H7C6.72477 15.22 6.5 14.9952 6.5 14.72C6.5 14.4448 6.72477 14.22 7 14.22H12C12.2826 14.22 12.5 13.9869 12.5 13.72C12.5 13.4352 12.2848 13.22 12 13.22H8.2C8.11262 13.22 7.98286 13.1998 7.89467 13.116L7.31956 12.6797L7.31933 12.6795C6.57665 12.1127 5.69794 11.82 4.8 11.82H3.9V16.2228L6.66963 17.8532C6.83562 17.9451 7.03854 18 7.22 18H11.92C12.1362 18 12.3378 17.9283 12.5265 17.8155L17.8789 14.2406C18.0162 14.1182 18.1 13.9467 18.1 13.76C18.1 13.5199 17.9633 13.3134 17.7553 13.2094C17.5481 13.1058 17.2908 13.124 17.1033 13.2774ZM13.923 8.23763L13.922 8.23846L10.302 11.0985L10.302 11.0985L10.3 11.1C10.2006 11.1745 10.0989 11.2 10 11.2C9.91236 11.2 9.78209 11.1796 9.6939 11.0952L6.07801 8.23846L6.078 8.23847L6.07664 8.23736C4.90041 7.27408 4.38726 6.27967 4.20468 5.42079C4.02261 4.56425 4.17103 3.85097 4.30491 3.44903C4.73613 2.09465 5.94808 1.10318 7.21346 1.02021L7.21344 1.02H7.22H7.42C8.39336 1.02 9.30915 1.40389 10 2.09643C10.6738 1.42199 11.6073 1.02 12.58 1.02H12.78V1.01979L12.7864 1.0202C14.0722 1.10315 15.2638 2.09491 15.695 3.44865C15.829 3.84089 15.9823 4.5541 15.8029 5.41295C15.6228 6.27455 15.1096 7.2742 13.923 8.23763ZM14.7648 3.75074L14.7646 3.74993C14.4553 2.76413 13.608 2.05841 12.7367 2H12.58C11.7325 2 10.9031 2.42416 10.4018 3.13749L10.402 3.1376L10.3981 3.14246C10.3006 3.26435 10.1527 3.34 10 3.34C9.84735 3.34 9.69942 3.26435 9.60191 3.14246L9.60176 3.14259L9.59818 3.13749C9.0967 2.42384 8.28707 2 7.42 2H7.2633C6.39326 2.05833 5.56459 2.76289 5.23499 3.75125C4.83192 4.99965 5.34405 6.35928 6.68273 7.46211L9.99982 10.0726L13.297 7.46235C13.2971 7.46222 13.2973 7.4621 13.2974 7.46197C14.6562 6.35896 15.1682 4.99914 14.7648 3.75074ZM1.9 17.2H2.9V11.8H1.9V17.2Z" fill="#9E77ED" stroke="#9E77ED" stroke-width="0.2"/>
</g>
<defs>
<clipPath id="clip0_4_33">
<rect width="20" height="20" fill="white" transform="matrix(-1 0 0 1 20 0)"/>
</clipPath>
</defs>
</svg>
