<svg width="20" height="20" viewBox="0 0 20 20" fill="none" xmlns="http://www.w3.org/2000/svg">
<path d="M10.8333 13.3333H2.5C2.27898 13.3333 2.06702 13.4211 1.91074 13.5774C1.75446 13.7337 1.66666 13.9457 1.66666 14.1667C1.66666 14.3877 1.75446 14.5996 1.91074 14.7559C2.06702 14.9122 2.27898 15 2.5 15H10.8333C11.0543 15 11.2663 14.9122 11.4226 14.7559C11.5789 14.5996 11.6667 14.3877 11.6667 14.1667C11.6667 13.9457 11.5789 13.7337 11.4226 13.5774C11.2663 13.4211 11.0543 13.3333 10.8333 13.3333ZM2.5 6.66667H17.5C17.721 6.66667 17.933 6.57887 18.0893 6.42259C18.2455 6.26631 18.3333 6.05435 18.3333 5.83333C18.3333 5.61232 18.2455 5.40036 18.0893 5.24408C17.933 5.0878 17.721 5 17.5 5H2.5C2.27898 5 2.06702 5.0878 1.91074 5.24408C1.75446 5.40036 1.66666 5.61232 1.66666 5.83333C1.66666 6.05435 1.75446 6.26631 1.91074 6.42259C2.06702 6.57887 2.27898 6.66667 2.5 6.66667ZM17.5 9.16667H2.5C2.27898 9.16667 2.06702 9.25446 1.91074 9.41074C1.75446 9.56702 1.66666 9.77899 1.66666 10C1.66666 10.221 1.75446 10.433 1.91074 10.5893C2.06702 10.7455 2.27898 10.8333 2.5 10.8333H17.5C17.721 10.8333 17.933 10.7455 18.0893 10.5893C18.2455 10.433 18.3333 10.221 18.3333 10C18.3333 9.77899 18.2455 9.56702 18.0893 9.41074C17.933 9.25446 17.721 9.16667 17.5 9.16667Z" fill="white"/>
</svg>
