<svg width="135" height="39" viewBox="0 0 135 39" fill="none" xmlns="http://www.w3.org/2000/svg">
<circle cx="13.3281" cy="15.5" r="10.3281" stroke="white" stroke-width="2"/>
<g filter="url(#filter0_dd_3_24)">
<circle cx="19.6719" cy="15.5" r="11.3281" fill="white"/>
</g>
<path d="M43.74 23H46.92L49.7 13.28L52.4 23H55.56L60.08 8.2H56.78L54.8 14.66C54.54 15.52 54.32 16.34 54.02 17.84C53.76 16.42 53.52 15.52 53.28 14.62L51.54 8.2H47.92L46.1 14.62C45.84 15.54 45.6 16.38 45.36 17.84C45.12 16.38 44.88 15.5 44.62 14.62L42.68 8.2H39.3L43.74 23ZM60.3459 27.8C60.9459 27.98 61.6459 28.08 62.3859 28.08C64.1459 28.08 65.2659 27.22 66.1059 25.18L71.1859 13H67.9859L65.5659 19.42L63.3859 13H60.0859L64.1059 23.34L63.9259 23.82C63.5259 24.9 63.0859 25.22 62.0459 25.22H60.3459V27.8ZM75.9345 23V17.64C75.9345 15.96 76.8345 15.48 77.7145 15.48C78.6945 15.48 79.3345 16.08 79.3345 17.32V23H82.4145V17.64C82.4145 15.94 83.2945 15.46 84.1745 15.46C85.1545 15.46 85.8145 16.06 85.8145 17.32V23H88.8945V16.46C88.8945 14.18 87.6145 12.68 85.0345 12.68C83.5945 12.68 82.4145 13.38 81.8945 14.44C81.3145 13.38 80.3545 12.68 78.8545 12.68C77.4145 12.68 76.4345 13.34 75.9345 14.04L75.7345 13H72.8545V23H75.9345ZM90.6595 19.84C90.6595 21.86 92.3195 23.26 94.9595 23.26C97.5595 23.26 99.3795 21.96 99.3795 19.82C99.3795 18.22 98.4795 17.46 96.8395 17.1L94.9795 16.7C94.2795 16.54 93.8995 16.28 93.8995 15.82C93.8995 15.28 94.3395 14.92 95.0395 14.92C95.7795 14.92 96.1995 15.38 96.1995 16.06H99.1195C99.1195 14.04 97.4995 12.68 95.1795 12.68C92.7795 12.68 90.9995 13.88 90.9995 15.96C90.9995 17.72 91.8995 18.52 93.7395 18.92L95.5795 19.32C96.3195 19.48 96.4795 19.8 96.4795 20.1C96.4795 20.62 96.0395 20.96 95.0795 20.96C94.1395 20.96 93.6195 20.54 93.5795 19.84H90.6595ZM102.909 11.44C103.869 11.44 104.649 10.66 104.649 9.68C104.649 8.7 103.869 7.94 102.909 7.94C101.929 7.94 101.149 8.7 101.149 9.68C101.149 10.66 101.929 11.44 102.909 11.44ZM101.389 23H104.469V13H101.389V23ZM106.64 17.96C106.64 21.16 108.68 23.26 111.84 23.26C114.64 23.26 116.68 21.54 116.88 19.02H113.78C113.58 20 112.92 20.5 111.84 20.5C110.52 20.5 109.74 19.56 109.74 17.96C109.74 16.42 110.58 15.44 111.88 15.44C112.94 15.44 113.56 15.92 113.78 16.92H116.88C116.68 14.3 114.72 12.68 111.76 12.68C108.76 12.68 106.64 14.88 106.64 17.96ZM121.986 23.26C123.486 23.26 124.806 22.6 125.126 21.68L125.326 23H128.046V17.16C128.046 14.3 126.406 12.68 123.506 12.68C120.646 12.68 118.786 14.16 118.786 16.42H121.346C121.346 15.52 122.046 15.02 123.346 15.02C124.446 15.02 125.046 15.54 125.046 16.52V16.68L122.246 16.9C119.846 17.08 118.546 18.22 118.546 20.06C118.546 22.02 119.866 23.26 121.986 23.26ZM123.066 20.98C122.126 20.98 121.686 20.64 121.686 19.92C121.686 19.28 122.166 18.98 123.506 18.86L125.066 18.72V19.26C125.066 20.4 124.246 20.98 123.066 20.98ZM133.735 23V7.92H130.655V23H133.735Z" fill="white"/>
<defs>
<filter id="filter0_dd_3_24" x="0.34375" y="0.171875" width="38.6562" height="38.6562" filterUnits="userSpaceOnUse" color-interpolation-filters="sRGB">
<feFlood flood-opacity="0" result="BackgroundImageFix"/>
<feColorMatrix in="SourceAlpha" type="matrix" values="0 0 0 0 0 0 0 0 0 0 0 0 0 0 0 0 0 0 127 0" result="hardAlpha"/>
<feOffset dy="4"/>
<feGaussianBlur stdDeviation="4"/>
<feColorMatrix type="matrix" values="0 0 0 0 0 0 0 0 0 0 0 0 0 0 0 0 0 0 0.32 0"/>
<feBlend mode="normal" in2="BackgroundImageFix" result="effect1_dropShadow_3_24"/>
<feColorMatrix in="SourceAlpha" type="matrix" values="0 0 0 0 0 0 0 0 0 0 0 0 0 0 0 0 0 0 127 0" result="hardAlpha"/>
<feOffset/>
<feGaussianBlur stdDeviation="1"/>
<feColorMatrix type="matrix" values="0 0 0 0 0 0 0 0 0 0 0 0 0 0 0 0 0 0 0.04 0"/>
<feBlend mode="normal" in2="effect1_dropShadow_3_24" result="effect2_dropShadow_3_24"/>
<feBlend mode="normal" in="SourceGraphic" in2="effect2_dropShadow_3_24" result="shape"/>
</filter>
</defs>
</svg>
