<svg width="20" height="20" viewBox="0 0 20 20" fill="none" xmlns="http://www.w3.org/2000/svg">
<path d="M14.5833 7.49916C13.8373 7.49884 13.1028 7.68338 12.4455 8.03627C12.3855 7.87829 12.2789 7.7423 12.1398 7.64636C12.0007 7.55043 11.8357 7.49909 11.6667 7.49916H8.33334C8.22389 7.4991 8.1155 7.52061 8.01436 7.56247C7.91323 7.60433 7.82134 7.66571 7.74395 7.7431C7.66655 7.8205 7.60517 7.91239 7.56331 8.01352C7.52146 8.11465 7.49994 8.22304 7.50001 8.3325V18.3325C7.49994 18.4419 7.52145 18.5503 7.56331 18.6515C7.60517 18.7526 7.66655 18.8445 7.74394 18.9219C7.82134 18.9993 7.91323 19.0607 8.01436 19.1025C8.1155 19.1444 8.22389 19.1659 8.33334 19.1658H11.6667C11.7761 19.1659 11.8845 19.1444 11.9857 19.1025C12.0868 19.0607 12.1787 18.9993 12.2561 18.9219C12.3335 18.8445 12.3948 18.7526 12.4367 18.6515C12.4786 18.5503 12.5001 18.4419 12.5 18.3325V13.7492C12.5 13.5281 12.5878 13.3162 12.7441 13.1599C12.9004 13.0036 13.1123 12.9158 13.3333 12.9158C13.5544 12.9158 13.7663 13.0036 13.9226 13.1599C14.0789 13.3162 14.1667 13.5281 14.1667 13.7492V18.3325C14.1666 18.4419 14.1881 18.5503 14.23 18.6515C14.2718 18.7526 14.3332 18.8445 14.4106 18.9219C14.488 18.9993 14.5799 19.0607 14.681 19.1025C14.7822 19.1444 14.8906 19.1659 15 19.1658H18.3333C18.4428 19.1659 18.5512 19.1444 18.6523 19.1025C18.7535 19.0607 18.8453 18.9993 18.9227 18.9219C19.0001 18.8445 19.0615 18.7526 19.1034 18.6515C19.1452 18.5503 19.1667 18.4419 19.1667 18.3325V12.0825C19.1652 10.8674 18.6818 9.70247 17.8226 8.84326C16.9634 7.98404 15.7985 7.50067 14.5833 7.49916ZM17.5 17.4992H15.8333V13.7492C15.8333 13.0861 15.5699 12.4502 15.1011 11.9814C14.6323 11.5126 13.9964 11.2492 13.3333 11.2492C12.6703 11.2492 12.0344 11.5126 11.5656 11.9814C11.0967 12.4502 10.8333 13.0861 10.8333 13.7492V17.4992H9.16667V9.16583H10.8333V9.75177C10.8334 9.92444 10.8871 10.0928 10.987 10.2336C11.0869 10.3745 11.2281 10.4808 11.391 10.538C11.554 10.5952 11.7306 10.6003 11.8966 10.5528C12.0626 10.5053 12.2097 10.4074 12.3177 10.2726C12.6917 9.79763 13.2047 9.4513 13.785 9.28197C14.3653 9.11264 14.9841 9.12876 15.5548 9.32809C16.1255 9.52741 16.6197 9.89998 16.9685 10.3938C17.3172 10.8876 17.503 11.478 17.5 12.0825V17.4992ZM5.83334 7.49916H2.50001C2.39055 7.4991 2.28216 7.52061 2.18103 7.56247C2.0799 7.60433 1.98801 7.66571 1.91061 7.7431C1.83322 7.8205 1.77184 7.91239 1.72998 8.01352C1.68812 8.11465 1.66661 8.22304 1.66667 8.3325V18.3325C1.66661 18.4419 1.68812 18.5503 1.72998 18.6515C1.77183 18.7526 1.83321 18.8445 1.91061 18.9219C1.988 18.9993 2.07989 19.0607 2.18103 19.1025C2.28216 19.1444 2.39055 19.1659 2.50001 19.1658H5.83334C5.94279 19.1659 6.05118 19.1444 6.15232 19.1025C6.25345 19.0607 6.34534 18.9993 6.42274 18.9219C6.50013 18.8445 6.56151 18.7526 6.60337 18.6515C6.64523 18.5503 6.66674 18.4419 6.66667 18.3325V8.3325C6.66674 8.22304 6.64522 8.11465 6.60337 8.01352C6.56151 7.91239 6.50013 7.8205 6.42273 7.7431C6.34534 7.66571 6.25345 7.60433 6.15232 7.56247C6.05118 7.52061 5.94279 7.4991 5.83334 7.49916ZM5.00001 17.4992H3.33334V9.16583H5.00001V17.4992ZM4.17888 1.285C3.81418 1.26317 3.44885 1.31574 3.10511 1.43953C2.76137 1.56332 2.4464 1.75574 2.17935 2.00507C1.91231 2.25441 1.69877 2.55546 1.55172 2.88991C1.40467 3.22437 1.32719 3.58523 1.32399 3.95057C1.32078 4.31591 1.39192 4.67808 1.53308 5.01506C1.67423 5.35205 1.88246 5.6568 2.14509 5.91078C2.40772 6.16476 2.71926 6.36267 3.06078 6.49248C3.4023 6.62228 3.76665 6.68126 4.13167 6.66583H4.15527C4.52094 6.68755 4.88719 6.63448 5.23165 6.50987C5.57611 6.38526 5.89155 6.19172 6.15869 5.94109C6.42583 5.69045 6.63906 5.38797 6.78535 5.05214C6.93164 4.71632 7.00791 4.35418 7.00952 3.98788C7.01113 3.62157 6.93803 3.25879 6.79469 2.92169C6.65135 2.58459 6.44078 2.28026 6.17586 2.02728C5.91093 1.77431 5.5972 1.57802 5.25384 1.45039C4.91049 1.32276 4.54471 1.26648 4.17887 1.285H4.17888ZM4.15528 4.99916H4.13167C3.98756 5.01666 3.84137 5.00315 3.70292 4.95952C3.56446 4.91589 3.43693 4.84317 3.32888 4.74622C3.22083 4.64927 3.13475 4.53033 3.07643 4.39739C3.01811 4.26445 2.98889 4.12058 2.99073 3.97542C2.99073 3.35367 3.45704 2.95165 4.17888 2.95165C4.32446 2.93225 4.47251 2.94426 4.61306 2.98689C4.75361 3.02952 4.88339 3.10177 4.99366 3.19878C5.10393 3.29579 5.19214 3.4153 5.25233 3.54927C5.31252 3.68324 5.34331 3.82855 5.34261 3.97542C5.34261 4.59716 4.87631 4.99916 4.15528 4.99916Z" fill="white"/>
</svg>
