<svg width="20" height="20" viewBox="0 0 20 20" fill="none" xmlns="http://www.w3.org/2000/svg">
<path d="M19.1593 3.29183C19.1594 3.14463 19.1205 3.00004 19.0466 2.87278C18.9726 2.74552 18.8662 2.64013 18.7383 2.56735C18.6103 2.49457 18.4654 2.457 18.3182 2.45847C18.171 2.45993 18.0269 2.50037 17.9004 2.57568C17.4126 2.866 16.8875 3.08833 16.3396 3.23651C15.557 2.56504 14.559 2.1976 13.5279 2.20135C12.3967 2.20266 11.3103 2.64351 10.4981 3.43084C9.68584 4.21816 9.21138 5.29032 9.17486 6.42092C6.94485 6.0653 4.92372 4.90136 3.49691 3.15104C3.41093 3.04673 3.30114 2.96463 3.17679 2.91166C3.05243 2.85868 2.91716 2.83639 2.78239 2.84666C2.64769 2.85775 2.51772 2.90149 2.40371 2.97409C2.28971 3.04669 2.19511 3.14596 2.12809 3.26333C1.78436 3.86317 1.58695 4.53563 1.55188 5.22608C1.51681 5.91654 1.64508 6.60554 1.92626 7.23712L1.92464 7.23874C1.79826 7.31658 1.69396 7.42554 1.62173 7.5552C1.54949 7.68486 1.51172 7.83089 1.51204 7.97931C1.51051 8.10175 1.51785 8.22414 1.53401 8.34552C1.61913 9.39407 2.08383 10.3756 2.84098 11.1059C2.78962 11.2038 2.75827 11.3109 2.74877 11.421C2.73926 11.5311 2.7518 11.642 2.78564 11.7472C3.11573 12.7757 3.81772 13.6439 4.75423 14.1821C3.80276 14.55 2.77541 14.6783 1.76269 14.5556C1.57525 14.5321 1.38538 14.573 1.22423 14.6716C1.06308 14.7702 0.94021 14.9206 0.875784 15.0982C0.811358 15.2757 0.809197 15.4699 0.869655 15.6489C0.930114 15.8279 1.0496 15.981 1.20852 16.0831C2.95027 17.2049 4.97825 17.8014 7.05 17.8011C9.39938 17.8275 11.6916 17.0768 13.5702 15.6656C15.4488 14.2545 16.8083 12.2621 17.4373 9.99833C17.7316 9.01219 17.8818 7.98872 17.8833 6.95963C17.8833 6.9051 17.8833 6.84895 17.8825 6.7928C18.3176 6.32358 18.6546 5.77222 18.8739 5.17105C19.0932 4.56988 19.1902 3.93099 19.1593 3.29183ZM16.4038 5.96842C16.2662 6.13121 16.1965 6.34075 16.2093 6.55354C16.2174 6.69104 16.2166 6.82938 16.2166 6.95963C16.2149 7.82924 16.0875 8.69404 15.8382 9.52718C15.3245 11.4533 14.1792 13.1514 12.5858 14.3493C10.9924 15.5473 9.04307 16.1759 7.05 16.1344C6.33406 16.1347 5.62059 16.0505 4.92435 15.8838C5.81219 15.5977 6.64234 15.1565 7.37633 14.5809C7.51152 14.4744 7.61046 14.3288 7.65957 14.1639C7.70868 13.999 7.70557 13.8229 7.65064 13.6598C7.59572 13.4968 7.49169 13.3547 7.35281 13.2531C7.21394 13.1515 7.04704 13.0954 6.875 13.0924C6.18236 13.0817 5.52094 12.8025 5.03011 12.3136C5.15462 12.29 5.27832 12.2607 5.40121 12.2257C5.58121 12.1745 5.73874 12.0642 5.84842 11.9125C5.9581 11.7609 6.01356 11.5767 6.00585 11.3897C5.99814 11.2027 5.92773 11.0238 5.80594 10.8816C5.68416 10.7395 5.51809 10.6425 5.33447 10.6063C4.93242 10.5269 4.55409 10.3558 4.2289 10.1064C3.90371 9.85703 3.64041 9.536 3.45947 9.16829C3.61008 9.18884 3.76165 9.20161 3.91357 9.20654C4.09406 9.20926 4.27073 9.15451 4.41805 9.05021C4.56537 8.9459 4.67569 8.79744 4.73307 8.62629C4.78805 8.4536 4.78523 8.26768 4.72501 8.09674C4.6648 7.92579 4.55049 7.77914 4.39941 7.67903C4.03287 7.43484 3.73262 7.10355 3.52554 6.71482C3.31847 6.3261 3.21105 5.89209 3.21289 5.45166C3.21289 5.39633 3.21451 5.34099 3.21777 5.28646C5.08549 7.02834 7.50804 8.05517 10.0586 8.18604C10.1874 8.19111 10.3156 8.16686 10.4336 8.11512C10.5516 8.06338 10.6563 7.9855 10.7398 7.88737C10.8224 7.78829 10.8809 7.67138 10.9107 7.54584C10.9405 7.42029 10.9408 7.28955 10.9114 7.1639C10.8638 6.96504 10.8395 6.7613 10.839 6.5568C10.8398 5.84392 11.1233 5.16044 11.6274 4.65636C12.1315 4.15227 12.8149 3.86875 13.5278 3.86799C13.8946 3.86701 14.2576 3.94208 14.5939 4.08845C14.9302 4.23482 15.2325 4.44933 15.4818 4.71842C15.5779 4.82182 15.6989 4.89891 15.8332 4.94237C15.9675 4.98582 16.1107 4.99418 16.2492 4.96666C16.5915 4.90004 16.9289 4.81032 17.2591 4.69811C17.0339 5.15892 16.7461 5.5864 16.4038 5.96842Z" fill="white"/>
</svg>
