<svg width="3166" height="1082" viewBox="0 0 3166 1082" fill="none" xmlns="http://www.w3.org/2000/svg">
<path d="M3165.92 1062.94L3060.43 1028.83C2954.94 994.084 2743.95 926.828 2532.96 909.213C2321.97 891.599 2110.98 926.828 1899.99 960.456C1689 994.084 1478.01 1029.31 1267.02 1054.45C1056.04 1080.56 845.047 1096.57 634.058 1062.94C423.069 1029.31 212.08 942.841 106.586 900.726L1.09155 857.971V653H106.586C212.08 653 423.069 653 634.058 653C845.047 653 1056.04 653 1267.02 653C1478.01 653 1689 653 1899.99 653C2110.98 653 2321.97 653 2532.96 653C2743.95 653 2954.94 653 3060.43 653H3165.92V1062.94Z" fill="#42567D"/>
<path d="M3164.83 1024.94L3059.34 990.833C2953.84 956.084 2742.86 888.828 2531.87 871.213C2320.88 853.599 2109.89 888.828 1898.9 922.456C1687.91 956.084 1476.92 991.314 1265.93 1016.45C1054.94 1042.56 843.955 1058.57 632.966 1024.94C421.978 991.314 210.989 904.841 105.494 862.726L-0.00025177 819.971V615H105.494C210.989 615 421.978 615 632.966 615C843.955 615 1054.94 615 1265.93 615C1476.92 615 1687.91 615 1898.9 615C2109.89 615 2320.88 615 2531.87 615C2742.86 615 2953.84 615 3059.34 615H3164.83V1024.94Z" fill="#293856"/>
<g clip-path="url(#clip0_33_843)">
<path d="M1 127.4L110.867 169.8C220.733 212.997 440.467 296.603 660.2 318.5C879.933 340.397 1099.67 296.603 1319.4 254.8C1539.13 212.997 1758.87 169.203 1978.6 137.95C2198.33 105.503 2418.07 85.5969 2637.8 127.4C2857.53 169.203 3077.27 276.697 3187.13 329.05L3297 382.2V637H3187.13C3077.27 637 2857.53 637 2637.8 637C2418.07 637 2198.33 637 1978.6 637C1758.87 637 1539.13 637 1319.4 637C1099.67 637 879.933 637 660.2 637C440.467 637 220.733 637 110.867 637H1V127.4Z" fill="#101828"/>
</g>
<path d="M3164.83 991.942L3059.34 957.833C2953.84 923.084 2742.86 855.828 2531.87 838.213C2320.88 820.599 2109.89 855.828 1898.9 889.456C1687.91 923.084 1476.92 958.314 1265.93 983.454C1054.94 1009.56 843.955 1025.57 632.966 991.942C421.978 958.314 210.989 871.841 105.494 829.726L-0.00025177 786.971V582H105.494C210.989 582 421.978 582 632.966 582C843.955 582 1054.94 582 1265.93 582C1476.92 582 1687.91 582 1898.9 582C2109.89 582 2320.88 582 2531.87 582C2742.86 582 2953.84 582 3059.34 582H3164.83V991.942Z" fill="#101828"/>
<defs>
<clipPath id="clip0_33_843">
<rect width="3164" height="637" fill="white" transform="translate(1)"/>
</clipPath>
</defs>
</svg>
