<svg width="20" height="20" viewBox="0 0 20 20" fill="none" xmlns="http://www.w3.org/2000/svg">
<path d="M18.2667 9.66668C16.5833 5.75834 13.4167 3.33334 9.99999 3.33334C6.58333 3.33334 3.41666 5.75834 1.73333 9.66668C1.68744 9.77181 1.66376 9.88529 1.66376 10C1.66376 10.1147 1.68744 10.2282 1.73333 10.3333C3.41666 14.2417 6.58333 16.6667 9.99999 16.6667C13.4167 16.6667 16.5833 14.2417 18.2667 10.3333C18.3125 10.2282 18.3362 10.1147 18.3362 10C18.3362 9.88529 18.3125 9.77181 18.2667 9.66668ZM9.99999 15C7.35833 15 4.85833 13.0917 3.41666 10C4.85833 6.90834 7.35833 5.00001 9.99999 5.00001C12.6417 5.00001 15.1417 6.90834 16.5833 10C15.1417 13.0917 12.6417 15 9.99999 15ZM9.99999 6.66668C9.34072 6.66668 8.69626 6.86217 8.14809 7.22844C7.59993 7.59472 7.17269 8.11531 6.9204 8.7244C6.6681 9.33349 6.60209 10.0037 6.73071 10.6503C6.85933 11.2969 7.1768 11.8909 7.64297 12.357C8.10915 12.8232 8.70309 13.1407 9.34969 13.2693C9.9963 13.3979 10.6665 13.3319 11.2756 13.0796C11.8847 12.8273 12.4053 12.4001 12.7716 11.8519C13.1378 11.3037 13.3333 10.6593 13.3333 10C13.3333 9.11595 12.9821 8.26811 12.357 7.64299C11.7319 7.01787 10.884 6.66668 9.99999 6.66668ZM9.99999 11.6667C9.67036 11.6667 9.34813 11.5689 9.07404 11.3858C8.79996 11.2027 8.58634 10.9424 8.4602 10.6378C8.33405 10.3333 8.30104 9.99816 8.36535 9.67486C8.42966 9.35156 8.5884 9.05459 8.82148 8.8215C9.05457 8.58841 9.35154 8.42968 9.67484 8.36537C9.99815 8.30106 10.3333 8.33406 10.6378 8.46021C10.9423 8.58636 11.2026 8.79998 11.3858 9.07406C11.5689 9.34814 11.6667 9.67037 11.6667 10C11.6667 10.442 11.4911 10.866 11.1785 11.1785C10.8659 11.4911 10.442 11.6667 9.99999 11.6667Z" fill="white"/>
</svg>
