<svg width="30" height="30" viewBox="0 0 30 30" fill="none" xmlns="http://www.w3.org/2000/svg">
<path d="M28.7911 28.0299V9.40299C28.7911 9.31343 28.7463 9.17911 28.6567 9.08955L23.9105 4.43284C23.8209 4.34329 23.6866 4.29851 23.597 4.29851H19.6567L19.2537 2.23881C19.0746 1.20896 18.0896 0.492539 17.0597 0.671643L2.77613 3.22388C2.28359 3.26866 1.83583 3.58209 1.56717 3.98508C1.25374 4.38806 1.16419 4.92537 1.25374 5.41791L4.56717 24.2239C4.74628 25.2537 5.73135 25.9701 6.7612 25.791L7.92538 25.6119V28.0746C7.92538 28.791 8.50747 29.3731 9.22389 29.3731H27.4925C28.209 29.3284 28.7911 28.7463 28.7911 28.0299ZM24.4478 8.95522C24.2239 8.95522 24.0448 8.77612 24.0448 8.55224V5.86567L27.2687 9H24.4478V8.95522ZM6.5821 24.8507C6.04478 24.9403 5.50747 24.5821 5.41792 24.0448L2.10448 5.23881C2.05971 4.97015 2.10448 4.70149 2.28359 4.47761C2.46269 4.29851 2.68657 4.1194 2.95523 4.07463L17.2388 1.56717C17.7761 1.47761 18.3134 1.83582 18.403 2.37314L18.7612 4.29851H9.22389C8.50747 4.29851 7.92538 4.8806 7.92538 5.59702V24.6269L6.5821 24.8507ZM27.8955 28.0299C27.8955 28.2537 27.7164 28.4328 27.4925 28.4328H9.22389C9.00001 28.4328 8.8209 28.2537 8.8209 28.0299V5.64179C8.8209 5.41791 9.00001 5.23881 9.22389 5.23881H23.1493V8.50746C23.1493 9.22388 23.7761 9.80597 24.4478 9.80597H27.8955V28.0299Z" fill="white"/>
<path d="M24.806 14.6866H11.9105C11.6418 14.6866 11.4627 14.8657 11.4627 15.1343C11.4627 15.403 11.6418 15.5821 11.9105 15.5821H24.806C25.0746 15.5821 25.2537 15.403 25.2537 15.1343C25.2537 14.8657 25.0299 14.6866 24.806 14.6866ZM11.4627 11.7313C11.4627 12 11.6418 12.1791 11.9105 12.1791H24.806C25.0746 12.1791 25.2537 12 25.2537 11.7313C25.2537 11.4627 25.0746 11.2836 24.806 11.2836H11.9105C11.6418 11.2836 11.4627 11.5075 11.4627 11.7313ZM24.806 18.0896H11.9105C11.6418 18.0896 11.4627 18.2687 11.4627 18.5373C11.4627 18.806 11.6418 18.9851 11.9105 18.9851H24.806C25.0746 18.9851 25.2537 18.806 25.2537 18.5373C25.2537 18.2687 25.0299 18.0896 24.806 18.0896ZM24.806 21.4478H11.9105C11.6418 21.4478 11.4627 21.6269 11.4627 21.8955C11.4627 22.1642 11.6418 22.3433 11.9105 22.3433H24.806C25.0746 22.3433 25.2537 22.1642 25.2537 21.8955C25.2537 21.6269 25.0299 21.4478 24.806 21.4478ZM24.806 24.8507H11.9105C11.6418 24.8507 11.4627 25.0299 11.4627 25.2985C11.4627 25.5672 11.6418 25.7463 11.9105 25.7463H24.806C25.0746 25.7463 25.2537 25.5672 25.2537 25.2985C25.2537 25.0299 25.0299 24.8507 24.806 24.8507Z" fill="white" fill-opacity="0.5"/>
</svg>
