<svg width="30" height="30" viewBox="0 0 30 30" fill="none" xmlns="http://www.w3.org/2000/svg">
<g clip-path="url(#clip0_3_5)">
<path fill-rule="evenodd" clip-rule="evenodd" d="M18.8232 19.5609C18.7942 19.6328 18.728 19.6955 18.6564 19.7249L18.6136 19.7425H10.2959L11.1719 16.4743L11.1778 16.4602C11.2071 16.3894 11.2729 16.3272 11.3436 16.2981L11.3865 16.2804H19.704L18.8285 19.5476L18.8232 19.5609ZM10.7514 4.77721V1.31432H19.2488V4.77721H10.7514ZM24.5761 16.2804H28.162C28.7886 16.2804 29.2975 16.7886 29.2975 17.4152V18.6081C29.2975 19.2346 28.7882 19.7425 28.162 19.7425H24.5761C23.9505 19.7425 23.4418 19.2338 23.4418 18.6081V17.4152C23.4418 16.7894 23.9501 16.2804 24.5761 16.2804ZM5.4242 19.7425H1.83803C1.21219 19.7425 0.703186 19.2341 0.703186 18.6081V17.4152C0.703186 16.789 1.2119 16.2804 1.83803 16.2804H5.4242C6.0501 16.2804 6.55852 16.7894 6.55852 17.4152V18.6081C6.55852 19.2338 6.04981 19.7425 5.4242 19.7425Z" fill="white" fill-opacity="0.5"/>
<path fill-rule="evenodd" clip-rule="evenodd" d="M29.063 18.6082C29.063 19.1046 28.6595 19.5082 28.162 19.5082H24.576C24.0799 19.5082 23.6761 19.1046 23.6761 18.6082V17.4152C23.6761 16.9183 24.0799 16.5148 24.576 16.5148H28.162C28.6595 16.5148 29.063 16.9183 29.063 17.4152V18.6082ZM25.9003 26.4857V20.4457H24.5761C23.5631 20.4457 22.7387 19.6215 22.7387 18.6082V17.4152C22.7387 16.4015 23.5631 15.5772 24.5761 15.5772H25.9003V10.9974H20.0996L15.4689 13.6616V15.5772H19.6303C19.8741 15.5772 20.0955 15.6833 20.2367 15.8672C20.3807 16.0554 20.426 16.3025 20.3608 16.5463L19.5106 19.719C19.4 20.1334 18.9979 20.4457 18.5767 20.4457H15.4689V24.5197H17.3404C18.4227 24.5197 19.3028 25.4006 19.3028 26.4826V26.4857H25.9003ZM18.3652 27.4265C18.3652 27.9915 17.9058 28.4514 17.3404 28.4514H12.6599C12.0945 28.4514 11.6351 27.9915 11.6351 27.4265V26.4826C11.6351 25.9171 12.0945 25.4572 12.6599 25.4572H17.3404C17.9058 25.4572 18.3652 25.9171 18.3652 26.4826V27.4265ZM10.6975 26.4826C10.6975 25.4006 11.5775 24.5197 12.6599 24.5197H14.5314V20.4457H10.37C10.1263 20.4457 9.90486 20.3404 9.76365 20.1557C9.61963 19.9684 9.57434 19.7204 9.63926 19.4766L10.4897 16.3037C10.6003 15.8896 11.0016 15.5773 11.4237 15.5773H14.5314V13.6616L9.9007 10.9975H4.10004V15.5773H5.42426C6.43723 15.5773 7.2617 16.4015 7.2617 17.4153V18.6082C7.2617 19.6215 6.43723 20.4457 5.42426 20.4457H4.10004V26.4857H10.6975V26.4826ZM0.9375 18.6082V17.4152C0.9375 16.9183 1.34133 16.5148 1.83797 16.5148H5.42414C5.92025 16.5148 6.32408 16.9183 6.32408 17.4152V18.6082C6.32408 19.1046 5.92025 19.5081 5.42414 19.5081H1.83803C1.34133 19.5081 0.9375 19.1046 0.9375 18.6082ZM10.6014 19.5081L11.3943 16.5499C11.399 16.5385 11.4189 16.5206 11.433 16.5148H19.3986L18.6059 19.473C18.6012 19.4846 18.5813 19.5023 18.5672 19.5081H10.6014ZM15.0002 8.20724L19.0344 10.5287L15.0002 12.8504L10.9659 10.5287L15.0002 8.20724ZM10.9858 1.54864H19.0144V4.54278H10.9858V1.54864ZM28.162 15.5773H26.838V10.5287C26.838 10.2697 26.628 10.0599 26.3682 10.0599H20.0996L15.4689 7.39519V5.48034H19.1035C19.5711 5.48034 19.9518 5.09948 19.9518 4.63179V1.45964C19.9518 0.991943 19.5711 0.611084 19.1035 0.611084H10.8968C10.4292 0.611084 10.0483 0.991943 10.0483 1.45964V4.63179C10.0483 5.09948 10.4292 5.48034 10.8968 5.48034H14.5314V7.39519L9.90064 10.0599H3.63129C3.37201 10.0599 3.16254 10.2697 3.16254 10.5287V15.5773H1.83803C0.824473 15.5773 0 16.4015 0 17.4152V18.6082C0 19.6214 0.824473 20.4456 1.83803 20.4456H3.16254V26.9541C3.16247 27.0157 3.17454 27.0767 3.19807 27.1336C3.2216 27.1906 3.25612 27.2423 3.29966 27.2858C3.3432 27.3294 3.3949 27.364 3.4518 27.3875C3.50871 27.4111 3.5697 27.4232 3.63129 27.4232H10.6975V27.4265C10.6975 28.5083 11.5775 29.3889 12.6599 29.3889H17.3404C18.4227 29.3889 19.3028 28.5083 19.3028 27.4265V27.4232H26.3682C26.628 27.4232 26.838 27.2134 26.838 26.9541V20.4457H28.162C29.1763 20.4457 30 19.6215 30 18.6082V17.4152C30 16.4015 29.1763 15.5773 28.162 15.5773Z" fill="white"/>
</g>
<defs>
<clipPath id="clip0_3_5">
<rect width="30" height="30" fill="white"/>
</clipPath>
</defs>
</svg>
