<svg width="30" height="30" viewBox="0 0 30 30" fill="none" xmlns="http://www.w3.org/2000/svg">
<g clip-path="url(#clip0_3_11)">
<path d="M22.9688 4.6875H29.5312C29.6556 4.6875 29.7748 4.63811 29.8627 4.55021C29.9506 4.4623 30 4.34307 30 4.21875V0.46875C30 0.34443 29.9506 0.225201 29.8627 0.137294C29.7748 0.049386 29.6556 0 29.5312 0L22.9688 0C22.8444 0 22.7252 0.049386 22.6373 0.137294C22.5494 0.225201 22.5 0.34443 22.5 0.46875V1.875H21.0938C20.5534 1.87489 20.0297 2.06146 19.6111 2.40314C19.1926 2.74481 18.9049 3.22061 18.7969 3.75H11.2031C11.0951 3.22061 10.8074 2.74481 10.3889 2.40314C9.97031 2.06146 9.44656 1.87489 8.90625 1.875H7.5V0.46875C7.5 0.34443 7.45061 0.225201 7.36271 0.137294C7.2748 0.049386 7.15557 0 7.03125 0L0.46875 0C0.34443 0 0.225201 0.049386 0.137294 0.137294C0.049386 0.225201 0 0.34443 0 0.46875L0 4.21875C0 4.34307 0.049386 4.4623 0.137294 4.55021C0.225201 4.63811 0.34443 4.6875 0.46875 4.6875H7.03125C7.15557 4.6875 7.2748 4.63811 7.36271 4.55021C7.45061 4.4623 7.5 4.34307 7.5 4.21875V2.8125H8.90625C9.19678 2.81283 9.48008 2.90314 9.7172 3.07102C9.95432 3.23889 10.1336 3.47608 10.2305 3.75H9.84375C9.71943 3.75 9.6002 3.79939 9.51229 3.88729C9.42439 3.9752 9.375 4.09443 9.375 4.21875V7.96875C9.375 8.09307 9.42439 8.2123 9.51229 8.30021C9.6002 8.38811 9.71943 8.4375 9.84375 8.4375H10.2305C10.1336 8.71142 9.95432 8.94861 9.7172 9.11649C9.48008 9.28436 9.19678 9.37467 8.90625 9.375H7.5V7.96875C7.5 7.84443 7.45061 7.7252 7.36271 7.63729C7.2748 7.54939 7.15557 7.5 7.03125 7.5H0.46875C0.34443 7.5 0.225201 7.54939 0.137294 7.63729C0.049386 7.7252 0 7.84443 0 7.96875L0 11.7188C0 11.8431 0.049386 11.9623 0.137294 12.0502C0.225201 12.1381 0.34443 12.1875 0.46875 12.1875H7.03125C7.15557 12.1875 7.2748 12.1381 7.36271 12.0502C7.45061 11.9623 7.5 11.8431 7.5 11.7188V10.3125H8.90625C9.44656 10.3126 9.97031 10.126 10.3889 9.78436C10.8074 9.44269 11.0951 8.96689 11.2031 8.4375H14.5312V9.40781C13.6891 9.52409 12.9172 9.94042 12.3575 10.5803C11.7977 11.2201 11.4877 12.0405 11.4844 12.8906C11.4855 13.5949 11.7005 14.2822 12.1008 14.8617C12.434 15.3377 12.6998 15.8575 12.8906 16.4062V18.2812C12.8906 18.2812 12.8906 18.3023 12.8906 18.3141C12.8896 18.3312 12.8896 18.3485 12.8906 18.3656C12.8934 18.3823 12.8973 18.3987 12.9023 18.4148C12.9023 18.4148 12.9023 18.4359 12.9023 18.4453L13.6055 20.3203C13.6399 20.4127 13.7026 20.4919 13.7847 20.5466C13.8667 20.6013 13.964 20.6287 14.0625 20.625H14.5312V21.5625H11.2031C11.0951 21.0331 10.8074 20.5573 10.3889 20.2156C9.97031 19.874 9.44656 19.6874 8.90625 19.6875H7.5V18.2812C7.5 18.1569 7.45061 18.0377 7.36271 17.9498C7.2748 17.8619 7.15557 17.8125 7.03125 17.8125H0.46875C0.34443 17.8125 0.225201 17.8619 0.137294 17.9498C0.049386 18.0377 0 18.1569 0 18.2812L0 22.0312C0 22.1556 0.049386 22.2748 0.137294 22.3627C0.225201 22.4506 0.34443 22.5 0.46875 22.5H7.03125C7.15557 22.5 7.2748 22.4506 7.36271 22.3627C7.45061 22.2748 7.5 22.1556 7.5 22.0312V20.625H8.90625C9.19678 20.6253 9.48008 20.7156 9.7172 20.8835C9.95432 21.0514 10.1336 21.2886 10.2305 21.5625H9.84375C9.71943 21.5625 9.6002 21.6119 9.51229 21.6998C9.42439 21.7877 9.375 21.9069 9.375 22.0312V25.7812C9.375 25.9056 9.42439 26.0248 9.51229 26.1127C9.6002 26.2006 9.71943 26.25 9.84375 26.25H10.2305C10.1336 26.5239 9.95432 26.7611 9.7172 26.929C9.48008 27.0969 9.19678 27.1872 8.90625 27.1875H7.5V25.7812C7.5 25.6569 7.45061 25.5377 7.36271 25.4498C7.2748 25.3619 7.15557 25.3125 7.03125 25.3125H0.46875C0.34443 25.3125 0.225201 25.3619 0.137294 25.4498C0.049386 25.5377 0 25.6569 0 25.7812L0 29.5312C0 29.6556 0.049386 29.7748 0.137294 29.8627C0.225201 29.9506 0.34443 30 0.46875 30H7.03125C7.15557 30 7.2748 29.9506 7.36271 29.8627C7.45061 29.7748 7.5 29.6556 7.5 29.5312V28.125H8.90625C9.44656 28.1251 9.97031 27.9385 10.3889 27.5969C10.8074 27.2552 11.0951 26.7794 11.2031 26.25H18.7969C18.9049 26.7794 19.1926 27.2552 19.6111 27.5969C20.0297 27.9385 20.5534 28.1251 21.0938 28.125H22.5V29.5312C22.5 29.6556 22.5494 29.7748 22.6373 29.8627C22.7252 29.9506 22.8444 30 22.9688 30H29.5312C29.6556 30 29.7748 29.9506 29.8627 29.8627C29.9506 29.7748 30 29.6556 30 29.5312V25.7812C30 25.6569 29.9506 25.5377 29.8627 25.4498C29.7748 25.3619 29.6556 25.3125 29.5312 25.3125H22.9688C22.8444 25.3125 22.7252 25.3619 22.6373 25.4498C22.5494 25.5377 22.5 25.6569 22.5 25.7812V27.1875H21.0938C20.8032 27.1872 20.5199 27.0969 20.2828 26.929C20.0457 26.7611 19.8664 26.5239 19.7695 26.25H20.1562C20.2806 26.25 20.3998 26.2006 20.4877 26.1127C20.5756 26.0248 20.625 25.9056 20.625 25.7812V22.0312C20.625 21.9069 20.5756 21.7877 20.4877 21.6998C20.3998 21.6119 20.2806 21.5625 20.1562 21.5625H19.7695C19.8664 21.2886 20.0457 21.0514 20.2828 20.8835C20.5199 20.7156 20.8032 20.6253 21.0938 20.625H22.5V22.0312C22.5 22.1556 22.5494 22.2748 22.6373 22.3627C22.7252 22.4506 22.8444 22.5 22.9688 22.5H29.5312C29.6556 22.5 29.7748 22.4506 29.8627 22.3627C29.9506 22.2748 30 22.1556 30 22.0312V18.2812C30 18.1569 29.9506 18.0377 29.8627 17.9498C29.7748 17.8619 29.6556 17.8125 29.5312 17.8125H22.9688C22.8444 17.8125 22.7252 17.8619 22.6373 17.9498C22.5494 18.0377 22.5 18.1569 22.5 18.2812V19.6875H21.0938C20.5534 19.6874 20.0297 19.874 19.6111 20.2156C19.1926 20.5573 18.9049 21.0331 18.7969 21.5625H15.4688V20.625H15.9375C16.0329 20.6248 16.1259 20.5956 16.2042 20.5411C16.2826 20.4867 16.3424 20.4097 16.3758 20.3203L17.0789 18.4453C17.0789 18.4453 17.0789 18.4242 17.0789 18.4148C17.08 18.3985 17.08 18.382 17.0789 18.3656C17.0799 18.3485 17.0799 18.3312 17.0789 18.3141C17.0789 18.3141 17.0789 18.293 17.0789 18.2812V16.4062C17.0802 16.3914 17.0802 16.3765 17.0789 16.3617C17.2369 15.865 17.4743 15.3972 17.782 14.9766C18.1482 14.49 18.381 13.9162 18.4573 13.312C18.5336 12.7079 18.4508 12.0942 18.2171 11.5319C17.9834 10.9695 17.6069 10.4779 17.1249 10.1058C16.6428 9.73368 16.0719 9.49388 15.4688 9.41016V8.4375H18.7969C18.9049 8.96689 19.1926 9.44269 19.6111 9.78436C20.0297 10.126 20.5534 10.3126 21.0938 10.3125H22.5V11.7188C22.5 11.8431 22.5494 11.9623 22.6373 12.0502C22.7252 12.1381 22.8444 12.1875 22.9688 12.1875H29.5312C29.6556 12.1875 29.7748 12.1381 29.8627 12.0502C29.9506 11.9623 30 11.8431 30 11.7188V7.96875C30 7.84443 29.9506 7.7252 29.8627 7.63729C29.7748 7.54939 29.6556 7.5 29.5312 7.5H22.9688C22.8444 7.5 22.7252 7.54939 22.6373 7.63729C22.5494 7.7252 22.5 7.84443 22.5 7.96875V9.375H21.0938C20.8032 9.37467 20.5199 9.28436 20.2828 9.11649C20.0457 8.94861 19.8664 8.71142 19.7695 8.4375H20.1562C20.2806 8.4375 20.3998 8.38811 20.4877 8.30021C20.5756 8.2123 20.625 8.09307 20.625 7.96875V4.21875C20.625 4.09443 20.5756 3.9752 20.4877 3.88729C20.3998 3.79939 20.2806 3.75 20.1562 3.75H19.7695C19.8664 3.47608 20.0457 3.23889 20.2828 3.07102C20.5199 2.90314 20.8032 2.81283 21.0938 2.8125H22.5V4.21875C22.5 4.34307 22.5494 4.4623 22.6373 4.55021C22.7252 4.63811 22.8444 4.6875 22.9688 4.6875ZM6.5625 3.75H0.9375V0.9375H6.5625V3.75ZM6.5625 11.25H0.9375V8.4375H6.5625V11.25ZM6.5625 21.5625H0.9375V18.75H6.5625V21.5625ZM6.5625 29.0625H0.9375V26.25H6.5625V29.0625ZM23.4375 26.25H29.0625V29.0625H23.4375V26.25ZM23.4375 18.75H29.0625V21.5625H23.4375V18.75ZM19.6875 22.5V25.3125H10.3125V22.5H19.6875ZM16.1719 17.8125H13.8281V16.875H16.1719V17.8125ZM15.6117 19.6875H14.3883L14.0367 18.75H15.9633L15.6117 19.6875ZM17.5781 12.8906C17.5802 13.4437 17.4007 13.9822 17.0672 14.4234C16.721 14.8841 16.4468 15.3946 16.2539 15.9375H13.7203C13.5118 15.3698 13.2331 14.8305 12.8906 14.332C12.592 13.9101 12.4286 13.4075 12.4219 12.8906C12.4313 12.2234 12.6952 11.585 13.1596 11.1059C13.6239 10.6267 14.2537 10.3429 14.9203 10.3125C15.2655 10.3018 15.6094 10.3606 15.9314 10.4854C16.2535 10.6102 16.5472 10.7984 16.7951 11.0389C17.043 11.2793 17.24 11.5672 17.3745 11.8853C17.5091 12.2034 17.5783 12.5452 17.5781 12.8906ZM23.4375 8.4375H29.0625V11.25H23.4375V8.4375ZM10.3125 7.5V4.6875H19.6875V7.5H10.3125ZM23.4375 0.9375H29.0625V3.75H23.4375V0.9375Z" fill="white"/>
<path d="M8.67187 16.6992C8.69866 16.7987 8.75749 16.8866 8.83926 16.9493C8.92102 17.012 9.02117 17.046 9.12421 17.0461C9.16542 17.0466 9.20648 17.041 9.24609 17.0297L10.1531 16.7953C10.2693 16.7605 10.3674 16.6821 10.427 16.5765C10.4865 16.4709 10.5029 16.3464 10.4725 16.229C10.4422 16.1116 10.3676 16.0105 10.2643 15.947C10.1611 15.8835 10.0372 15.8624 9.91875 15.8883L9.01406 16.1227C8.95336 16.1374 8.89623 16.1641 8.84601 16.2013C8.79579 16.2384 8.75349 16.2852 8.72162 16.3389C8.68974 16.3926 8.66892 16.4522 8.66037 16.514C8.65183 16.5759 8.65574 16.6389 8.67187 16.6992ZM21.3398 13.3008C21.3075 13.1808 21.2288 13.0787 21.1211 13.0167C21.0134 12.9548 20.8856 12.9381 20.7656 12.9703L19.8586 13.2047C19.7469 13.2326 19.6494 13.3006 19.5847 13.3958C19.5199 13.491 19.4925 13.6067 19.5075 13.7208C19.5226 13.8349 19.5791 13.9395 19.6663 14.0146C19.7536 14.0897 19.8654 14.1301 19.9805 14.1281C20.0216 14.1271 20.0624 14.1216 20.1023 14.1117L21.007 13.8773C21.0669 13.8616 21.123 13.8341 21.1722 13.7965C21.2214 13.7589 21.2626 13.712 21.2936 13.6584C21.3245 13.6048 21.3445 13.5456 21.3525 13.4842C21.3604 13.4228 21.3561 13.3605 21.3398 13.3008ZM21.007 16.125L20.1023 15.8906C19.9839 15.8648 19.86 15.8858 19.7568 15.9493C19.6535 16.0129 19.5789 16.1139 19.5486 16.2313C19.5182 16.3487 19.5346 16.4733 19.5941 16.5789C19.6537 16.6845 19.7518 16.7629 19.868 16.7977L20.775 17.032C20.8146 17.0434 20.8557 17.0489 20.8969 17.0484C21.0102 17.0476 21.1193 17.0058 21.2042 16.9307C21.289 16.8556 21.3438 16.7524 21.3584 16.64C21.3729 16.5277 21.3463 16.4138 21.2835 16.3196C21.2206 16.2253 21.1257 16.157 21.0164 16.1273L21.007 16.125ZM8.99296 13.875L9.89765 14.1094C9.93756 14.1193 9.97842 14.1248 10.0195 14.1258C10.1346 14.1278 10.2464 14.0874 10.3336 14.0123C10.4209 13.9371 10.4774 13.8326 10.4925 13.7184C10.5075 13.6043 10.4801 13.4886 10.4153 13.3935C10.3506 13.2983 10.2531 13.2303 10.1414 13.2023L9.23437 12.968C9.17323 12.9468 9.10838 12.9386 9.0439 12.9437C8.97942 12.9489 8.91671 12.9673 8.8597 12.9979C8.80269 13.0285 8.75263 13.0705 8.71267 13.1214C8.6727 13.1722 8.64369 13.2308 8.62747 13.2934C8.61125 13.3561 8.60816 13.4214 8.6184 13.4852C8.62865 13.5491 8.652 13.6102 8.68699 13.6646C8.72198 13.719 8.76785 13.7655 8.82172 13.8014C8.87559 13.8372 8.93629 13.8614 9 13.8727L8.99296 13.875Z" fill="white" fill-opacity="0.5"/>
</g>
<defs>
<clipPath id="clip0_3_11">
<rect width="30" height="30" fill="white"/>
</clipPath>
</defs>
</svg>
