<svg width="32" height="32" viewBox="0 0 32 32" fill="none" xmlns="http://www.w3.org/2000/svg">
<path d="M29.5 2H2.5C2.10231 2.00043 1.72103 2.15861 1.43982 2.43982C1.15861 2.72103 1.00043 3.10231 1 3.5V28.5C1.00043 28.8977 1.15861 29.279 1.43982 29.5602C1.72103 29.8414 2.10231 29.9996 2.5 30H24.5C24.6325 29.9997 24.7596 29.9471 24.8535 29.8535L30.8535 23.8535C30.9418 23.7562 30.9935 23.6312 31 23.5V3.5C30.9996 3.10231 30.8414 2.72103 30.5602 2.43982C30.279 2.15861 29.8977 2.00043 29.5 2ZM2 28.5V3.5C2.00009 3.36742 2.0528 3.24029 2.14654 3.14654C2.24029 3.0528 2.36742 3.00009 2.5 3H10V26C10.0026 26.1309 10.0565 26.2555 10.1499 26.3471C10.2434 26.4388 10.3691 26.4901 10.5 26.4901C10.6309 26.4901 10.7566 26.4387 10.8501 26.3471C10.9436 26.2555 10.9974 26.1308 11 26V3H21V26C21.0026 26.1309 21.0565 26.2555 21.1499 26.3471C21.2434 26.4388 21.3691 26.4901 21.5 26.4901C21.6309 26.4901 21.7566 26.4387 21.8501 26.3471C21.9436 26.2555 21.9974 26.1308 22 26V3H29.5C29.6326 3.00009 29.7597 3.0528 29.8535 3.14654C29.9472 3.24029 29.9999 3.36742 30 3.5V23H25.5C25.1023 23.0004 24.721 23.1586 24.4398 23.4398C24.1586 23.721 24.0004 24.1023 24 24.5V29H2.5C2.36742 28.9999 2.24029 28.9472 2.14654 28.8535C2.0528 28.7597 2.00009 28.6326 2 28.5ZM25 28.293V24.5C25.0001 24.3674 25.0528 24.2403 25.1465 24.1465C25.2403 24.0528 25.3674 24.0001 25.5 24H29.293L25 28.293Z" fill="white" fill-opacity="0.5"/>
<path d="M7.5 13.5H4.5C4.23489 13.5003 3.98074 13.6058 3.79327 13.7933C3.60581 13.9807 3.50034 14.2349 3.5 14.5V19.5C3.50034 19.7651 3.60581 20.0193 3.79327 20.2067C3.98074 20.3942 4.23489 20.4997 4.5 20.5H7.5C7.76511 20.4997 8.01927 20.3942 8.20673 20.2067C8.39419 20.0193 8.49966 19.7651 8.5 19.5V14.5C8.49966 14.2349 8.39419 13.9807 8.20673 13.7933C8.01927 13.6058 7.76511 13.5003 7.5 13.5ZM4.5 19.5V14.5H7.5L7.501 19.5H4.5ZM18.5 13.5H13.5C13.2349 13.5003 12.9807 13.6058 12.7933 13.7933C12.6058 13.9807 12.5003 14.2349 12.5 14.5V19.5C12.5003 19.7651 12.6058 20.0193 12.7933 20.2067C12.9807 20.3942 13.2349 20.4997 13.5 20.5H18.5C18.7651 20.4997 19.0193 20.3942 19.2067 20.2067C19.3942 20.0193 19.4997 19.7651 19.5 19.5V14.5C19.4997 14.2349 19.3942 13.9807 19.2067 13.7933C19.0193 13.6058 18.7651 13.5003 18.5 13.5ZM13.5 19.5V14.5H18.5L18.501 19.5H13.5ZM24.5 20.5H27.5C27.7651 20.4997 28.0193 20.3942 28.2067 20.2067C28.3942 20.0193 28.4997 19.7651 28.5 19.5V14.5C28.4997 14.2349 28.3942 13.9807 28.2067 13.7933C28.0193 13.6058 27.7651 13.5003 27.5 13.5H24.5C24.2349 13.5003 23.9807 13.6058 23.7933 13.7933C23.6058 13.9807 23.5003 14.2349 23.5 14.5V19.5C23.5003 19.7651 23.6058 20.0193 23.7933 20.2067C23.9807 20.3942 24.2349 20.4997 24.5 20.5ZM24.5 14.5H27.5L27.501 19.5H24.5V14.5ZM7.5 5H4.5C4.23489 5.00034 3.98074 5.10581 3.79327 5.29327C3.60581 5.48073 3.50034 5.73489 3.5 6V11C3.50034 11.2651 3.60581 11.5193 3.79327 11.7067C3.98074 11.8942 4.23489 11.9997 4.5 12H7.5C7.76511 11.9997 8.01927 11.8942 8.20673 11.7067C8.39419 11.5193 8.49966 11.2651 8.5 11V6C8.49966 5.73489 8.39419 5.48073 8.20673 5.29327C8.01927 5.10581 7.76511 5.00034 7.5 5ZM4.5 11V6H7.5L7.501 11H4.5ZM18.5 5H13.5C13.2349 5.00034 12.9807 5.10581 12.7933 5.29327C12.6058 5.48073 12.5003 5.73489 12.5 6V11C12.5003 11.2651 12.6058 11.5193 12.7933 11.7067C12.9807 11.8942 13.2349 11.9997 13.5 12H18.5C18.7651 11.9997 19.0193 11.8942 19.2067 11.7067C19.3942 11.5193 19.4997 11.2651 19.5 11V6C19.4997 5.73489 19.3942 5.48073 19.2067 5.29327C19.0193 5.10581 18.7651 5.00034 18.5 5ZM13.5 11V6H18.5L18.501 11H13.5ZM24.5 12H27.5C27.7651 11.9997 28.0193 11.8942 28.2067 11.7067C28.3942 11.5193 28.4997 11.2651 28.5 11V6C28.4997 5.73489 28.3942 5.48073 28.2067 5.29327C28.0193 5.10581 27.7651 5.00034 27.5 5H24.5C24.2349 5.00034 23.9807 5.10581 23.7933 5.29327C23.6058 5.48073 23.5003 5.73489 23.5 6V11C23.5003 11.2651 23.6058 11.5193 23.7933 11.7067C23.9807 11.8942 24.2349 11.9997 24.5 12ZM24.5 6H27.5L27.501 11H24.5V6Z" fill="white"/>
</svg>
