<svg width="32" height="32" viewBox="0 0 32 32" fill="none" xmlns="http://www.w3.org/2000/svg">
<path d="M28.6667 1.33334H3.33334C2.80291 1.33334 2.2942 1.54406 1.91913 1.91913C1.54406 2.2942 1.33334 2.80291 1.33334 3.33334V28.6667C1.33334 29.1971 1.54406 29.7058 1.91913 30.0809C2.2942 30.456 2.80291 30.6667 3.33334 30.6667H28.6667C29.1971 30.6667 29.7058 30.456 30.0809 30.0809C30.456 29.7058 30.6667 29.1971 30.6667 28.6667V3.33334C30.6667 2.80291 30.456 2.2942 30.0809 1.91913C29.7058 1.54406 29.1971 1.33334 28.6667 1.33334ZM3.33334 2.66668H28.6667C28.8435 2.66668 29.0131 2.73691 29.1381 2.86194C29.2631 2.98696 29.3333 3.15653 29.3333 3.33334V5.33334H2.66668V3.33334C2.66668 3.15653 2.73691 2.98696 2.86194 2.86194C2.98696 2.73691 3.15653 2.66668 3.33334 2.66668ZM28.6667 29.3333H3.33334C3.15653 29.3333 2.98696 29.2631 2.86194 29.1381C2.73691 29.0131 2.66668 28.8435 2.66668 28.6667V6.66668H29.3333V28.6667C29.3333 28.8435 29.2631 29.0131 29.1381 29.1381C29.0131 29.2631 28.8435 29.3333 28.6667 29.3333Z" fill="white" fill-opacity="0.5"/>
<path d="M4 3.33333H5.33333V4.66666H4V3.33333ZM6.66667 3.33333H8V4.66666H6.66667V3.33333ZM9.33333 3.33333H10.6667V4.66666H9.33333V3.33333ZM10 17.3333H6C5.82319 17.3333 5.65362 17.4036 5.5286 17.5286C5.40357 17.6536 5.33333 17.8232 5.33333 18V22C5.33333 22.1768 5.40357 22.3464 5.5286 22.4714C5.65362 22.5964 5.82319 22.6667 6 22.6667H10C10.1768 22.6667 10.3464 22.5964 10.4714 22.4714C10.5964 22.3464 10.6667 22.1768 10.6667 22V18C10.6667 17.8232 10.5964 17.6536 10.4714 17.5286C10.3464 17.4036 10.1768 17.3333 10 17.3333ZM9.33333 21.3333H6.66667V18.6667H9.33333V21.3333ZM18 17.3333H14C13.8232 17.3333 13.6536 17.4036 13.5286 17.5286C13.4036 17.6536 13.3333 17.8232 13.3333 18V22C13.3333 22.1768 13.4036 22.3464 13.5286 22.4714C13.6536 22.5964 13.8232 22.6667 14 22.6667H18C18.1768 22.6667 18.3464 22.5964 18.4714 22.4714C18.5964 22.3464 18.6667 22.1768 18.6667 22V18C18.6667 17.8232 18.5964 17.6536 18.4714 17.5286C18.3464 17.4036 18.1768 17.3333 18 17.3333ZM17.3333 21.3333H14.6667V18.6667H17.3333V21.3333ZM26 17.3333H22C21.8232 17.3333 21.6536 17.4036 21.5286 17.5286C21.4036 17.6536 21.3333 17.8232 21.3333 18V22C21.3333 22.1768 21.4036 22.3464 21.5286 22.4714C21.6536 22.5964 21.8232 22.6667 22 22.6667H26C26.1768 22.6667 26.3464 22.5964 26.4714 22.4714C26.5964 22.3464 26.6667 22.1768 26.6667 22V18C26.6667 17.8232 26.5964 17.6536 26.4714 17.5286C26.3464 17.4036 26.1768 17.3333 26 17.3333ZM25.3333 21.3333H22.6667V18.6667H25.3333V21.3333ZM26 8.66666H6C5.82319 8.66666 5.65362 8.7369 5.5286 8.86192C5.40357 8.98695 5.33333 9.15652 5.33333 9.33333V14.6667C5.33333 14.8435 5.40357 15.013 5.5286 15.1381C5.65362 15.2631 5.82319 15.3333 6 15.3333H26C26.1768 15.3333 26.3464 15.2631 26.4714 15.1381C26.5964 15.013 26.6667 14.8435 26.6667 14.6667V9.33333C26.6667 9.15652 26.5964 8.98695 26.4714 8.86192C26.3464 8.7369 26.1768 8.66666 26 8.66666ZM25.3333 14H6.66667V10H25.3333V14ZM5.33333 24H10.6667V25.3333H5.33333V24ZM5.33333 26H10.6667V27.3333H5.33333V26ZM13.3333 24H18.6667V25.3333H13.3333V24ZM13.3333 26H18.6667V27.3333H13.3333V26ZM21.3333 24H26.6667V25.3333H21.3333V24ZM21.3333 26H26.6667V27.3333H21.3333V26Z" fill="white"/>
</svg>
